<svg xmlns="http://www.w3.org/2000/svg" version="1.1" xmlns:xlink="http://www.w3.org/1999/xlink" xmlns:svgjs="http://svgjs.dev/svgjs" width="1500" height="935" viewBox="0 0 1500 935"><g transform="matrix(1,0,0,1,-0.9090909090908781,0.3785425101214628)"><svg viewBox="0 0 396 247" data-background-color="#ffffff" preserveAspectRatio="xMidYMid meet" height="935" width="1500" xmlns="http://www.w3.org/2000/svg" xmlns:xlink="http://www.w3.org/1999/xlink"><g id="tight-bounds" transform="matrix(1,0,0,1,0.2400000000000091,-0.09999999999999432)"><svg viewBox="0 0 395.52 247.2" height="247.2" width="395.52"><g><svg></svg></g><g><svg viewBox="0 0 395.52 247.2" height="247.2" width="395.52"><g transform="matrix(1,0,0,1,75.54432000000001,101.79850728154133)"><svg viewBox="0 0 244.43135999999996 43.602985436917336" height="43.602985436917336" width="244.43135999999996"><g><svg viewBox="0 0 308.96086728275867 55.114107276200066" height="43.602985436917336" width="244.43135999999996"><g transform="matrix(1,0,0,1,64.52950728275867,7.617072713280908)"><svg viewBox="0 0 244.43136 39.87996184963825" height="39.87996184963825" width="244.43136"><g id="textblocktransform"><svg viewBox="0 0 244.43136 39.87996184963825" height="39.87996184963825" width="244.43136" id="textblock"><g><svg viewBox="0 0 244.43136 39.87996184963825" height="39.87996184963825" width="244.43136"><g transform="matrix(1,0,0,1,0,0)"><svg width="244.43136" viewBox="4.13 -37.5 232.81 37.99" height="39.87996184963825" data-palette-color="#cb8c2f"><path d="M23.73-19.53L23.73-15.7 8.81-15.7 8.81 0 4.13 0 4.13-35.55 26.15-35.55 26.15-31.69 8.81-31.69 8.81-19.53 23.73-19.53ZM29.34-13.13L29.34-13.45Q29.34-17.33 30.87-20.43 32.39-23.54 35.12-25.22 37.84-26.9 41.33-26.9L41.33-26.9Q46.73-26.9 50.06-23.17 53.39-19.43 53.39-13.23L53.39-13.23 53.39-12.92Q53.39-9.06 51.91-5.99 50.44-2.93 47.69-1.22 44.94 0.49 41.38 0.49L41.38 0.49Q36.01 0.49 32.68-3.25 29.34-6.98 29.34-13.13L29.34-13.13ZM33.88-12.92L33.88-12.92Q33.88-8.52 35.92-5.86 37.96-3.2 41.38-3.2L41.38-3.2Q44.82-3.2 46.85-5.9 48.87-8.59 48.87-13.45L48.87-13.45Q48.87-17.8 46.81-20.5 44.75-23.19 41.33-23.19L41.33-23.19Q37.99-23.19 35.94-20.53 33.88-17.87 33.88-12.92ZM57.86-13.13L57.86-13.45Q57.86-17.33 59.38-20.43 60.91-23.54 63.63-25.22 66.35-26.9 69.84-26.9L69.84-26.9Q75.24-26.9 78.57-23.17 81.9-19.43 81.9-13.23L81.9-13.23 81.9-12.92Q81.9-9.06 80.43-5.99 78.95-2.93 76.2-1.22 73.46 0.49 69.89 0.49L69.89 0.49Q64.52 0.49 61.19-3.25 57.86-6.98 57.86-13.13L57.86-13.13ZM62.4-12.92L62.4-12.92Q62.4-8.52 64.44-5.86 66.47-3.2 69.89-3.2L69.89-3.2Q73.33-3.2 75.36-5.9 77.39-8.59 77.39-13.45L77.39-13.45Q77.39-17.8 75.32-20.5 73.26-23.19 69.84-23.19L69.84-23.19Q66.5-23.19 64.45-20.53 62.4-17.87 62.4-12.92ZM86.47-13.09L86.47-13.43Q86.47-19.51 89.35-23.21 92.23-26.9 96.89-26.9L96.89-26.9Q101.53-26.9 104.24-23.73L104.24-23.73 104.24-37.5 108.76-37.5 108.76 0 104.61 0 104.39-2.83Q101.68 0.49 96.84 0.49L96.84 0.49Q92.25 0.49 89.36-3.27 86.47-7.03 86.47-13.09L86.47-13.09ZM90.98-12.92L90.98-12.92Q90.98-8.42 92.84-5.88 94.69-3.34 97.97-3.34L97.97-3.34Q102.26-3.34 104.24-7.2L104.24-7.2 104.24-19.34Q102.21-23.07 98.01-23.07L98.01-23.07Q94.69-23.07 92.84-20.51 90.98-17.94 90.98-12.92ZM118.13-35.55L128.24-6.23 138.39-35.55 143.52-35.55 130.34 0 126.19 0 113.03-35.55 118.13-35.55ZM157.46 0.49L157.46 0.49Q152.09 0.49 148.72-3.04 145.35-6.57 145.35-12.48L145.35-12.48 145.35-13.31Q145.35-17.24 146.85-20.32 148.35-23.41 151.05-25.16 153.75-26.9 156.9-26.9L156.9-26.9Q162.05-26.9 164.9-23.51 167.76-20.12 167.76-13.79L167.76-13.79 167.76-11.91 149.87-11.91Q149.96-8.01 152.15-5.6 154.33-3.2 157.7-3.2L157.7-3.2Q160.09-3.2 161.76-4.17 163.42-5.15 164.66-6.76L164.66-6.76 167.42-4.61Q164.1 0.49 157.46 0.49ZM156.9-23.19L156.9-23.19Q154.16-23.19 152.31-21.2 150.45-19.21 150.01-15.63L150.01-15.63 163.24-15.63 163.24-15.97Q163.05-19.41 161.39-21.3 159.73-23.19 156.9-23.19ZM185.75-26.56L185.75-22.36Q184.73-22.53 183.53-22.53L183.53-22.53Q179.09-22.53 177.5-18.75L177.5-18.75 177.5 0 172.98 0 172.98-26.42 177.38-26.42 177.45-23.36Q179.67-26.9 183.75-26.9L183.75-26.9Q185.07-26.9 185.75-26.56L185.75-26.56ZM205.28-7.01L205.28-7.01Q205.28-8.84 203.9-9.85 202.52-10.86 199.09-11.6 195.66-12.33 193.65-13.35 191.63-14.38 190.67-15.8 189.7-17.21 189.7-19.17L189.7-19.17Q189.7-22.41 192.45-24.66 195.2-26.9 199.47-26.9L199.47-26.9Q203.96-26.9 206.76-24.58 209.55-22.27 209.55-18.65L209.55-18.65 205.01-18.65Q205.01-20.51 203.44-21.85 201.86-23.19 199.47-23.19L199.47-23.19Q197-23.19 195.61-22.12 194.22-21.04 194.22-19.31L194.22-19.31Q194.22-17.68 195.51-16.85 196.81-16.02 200.19-15.26 203.57-14.5 205.67-13.45 207.77-12.4 208.78-10.93 209.8-9.45 209.8-7.32L209.8-7.32Q209.8-3.78 206.96-1.65 204.13 0.49 199.62 0.49L199.62 0.49Q196.44 0.49 194-0.63 191.56-1.76 190.18-3.77 188.8-5.79 188.8-8.13L188.8-8.13 193.32-8.13Q193.44-5.86 195.14-4.53 196.83-3.2 199.62-3.2L199.62-3.2Q202.18-3.2 203.73-4.24 205.28-5.27 205.28-7.01ZM226.64 0.49L226.64 0.49Q221.27 0.49 217.9-3.04 214.53-6.57 214.53-12.48L214.53-12.48 214.53-13.31Q214.53-17.24 216.03-20.32 217.53-23.41 220.23-25.16 222.93-26.9 226.08-26.9L226.08-26.9Q231.23-26.9 234.09-23.51 236.94-20.12 236.94-13.79L236.94-13.79 236.94-11.91 219.05-11.91Q219.15-8.01 221.33-5.6 223.52-3.2 226.88-3.2L226.88-3.2Q229.28-3.2 230.94-4.17 232.6-5.15 233.84-6.76L233.84-6.76 236.6-4.61Q233.28 0.49 226.64 0.49ZM226.08-23.19L226.08-23.19Q223.34-23.19 221.49-21.2 219.63-19.21 219.19-15.63L219.19-15.63 232.43-15.63 232.43-15.97Q232.23-19.41 230.57-21.3 228.91-23.19 226.08-23.19Z" opacity="1" transform="matrix(1,0,0,1,0,0)" fill="#cb8c2f" class="wordmark-text-0" data-fill-palette-color="primary" id="text-0"></path></svg></g></svg></g></svg></g></svg></g><g><svg viewBox="0 0 55.11480540914347 55.114107276200066" height="55.114107276200066" width="55.11480540914347"><g><svg xmlns="http://www.w3.org/2000/svg" xmlns:xlink="http://www.w3.org/1999/xlink" version="1.1" x="0" y="0" viewBox="0 0 32.000405345478555 32" enable-background="new 0 0 32 32" xml:space="preserve" width="55.11480540914347" height="55.114107276200066" class="icon-icon-0" data-fill-palette-color="accent" id="icon-0"><g fill="#ac5633" data-fill-palette-color="accent"><path fill="#ac5633" d="M29.5 21h-2.691c-0.045-0.239-0.1-0.473-0.16-0.706l4.799-2.399c0.494-0.247 0.693-0.848 0.447-1.342-0.248-0.494-0.846-0.692-1.342-0.447l-4.578 2.288C24.229 14.626 20.42 12 16 12c-5.382 0-9.865 3.888-10.809 9H2.5C1.122 21 0 22.121 0 23.5c0 0.49 0.18 0.963 0.505 1.329L4 28.761V29.5C4 30.879 5.122 32 6.5 32h19c1.379 0 2.5-1.121 2.5-2.5v-0.739l3.494-3.932C31.82 24.463 32 23.99 32 23.5 32 22.121 30.879 21 29.5 21zM25.799 21h-0.562l0.498-0.25C25.754 20.834 25.781 20.915 25.799 21zM16 13c4.029 0 7.5 2.4 9.082 5.841l-0.891 0.445C22.775 16.171 19.645 14 16 14c-4.282 0-7.859 2.993-8.77 7H6.202C7.131 16.441 11.171 13 16 13zM20.576 21c-0.773-1.763-2.531-3-4.576-3s-3.802 1.237-4.576 3H10.35c0.826-2.326 3.043-4 5.65-4 2.465 0 4.588 1.496 5.508 3.627L20.764 21H20.576zM16 20c-0.883 0-1.67 0.391-2.22 1h-1.224c0.694-1.189 1.97-2 3.444-2 1.473 0 2.75 0.811 3.443 2h-1.225C17.67 20.391 16.883 20 16 20zM16 16c-3.165 0-5.842 2.112-6.705 5H8.263c0.892-3.444 4.017-6 7.737-6 3.246 0 6.043 1.948 7.295 4.734l-0.893 0.446C21.314 17.723 18.855 16 16 16zM26 28v1.5c0 0.276-0.225 0.5-0.5 0.5h-19C6.224 30 6 29.776 6 29.5V28l-4-4.5C2 23.224 2.224 23 2.5 23H5h1 1 1 1 1 1 1 1 6 1 1 1 1 1 1 1 1 2.5c0.275 0 0.5 0.224 0.5 0.5L26 28z" data-fill-palette-color="accent"></path><path fill="#ac5633" d="M7.977 11.712c0.003 0.006 0.005 0.012 0.008 0.018 0 0 0.001 0 0.002 0C8.07 11.89 8.236 12 8.43 12c0.277 0 0.502-0.226 0.502-0.503 0-0.043-0.007-0.085-0.018-0.125 0.002-0.007 0.002-0.013 0-0.02-0.375-0.882-0.019-1.85 0.419-2.892 0.473-1.126 0.98-2.376 0.422-3.647C9.684 4.63 9.507 4.5 9.299 4.5c-0.271 0-0.49 0.22-0.49 0.49 0 0.06 0.012 0.116 0.032 0.169 0 0.002 0 0.004 0.001 0.006 0.001 0.003 0.002 0.006 0.003 0.009C8.847 5.178 8.848 5.182 8.85 5.186c0.404 0.909 0.013 1.841-0.428 2.893C7.956 9.188 7.44 10.417 7.959 11.67 7.965 11.685 7.97 11.698 7.977 11.712z" data-fill-palette-color="accent"></path><path fill="#ac5633" d="M20.154 11.566c0.004 0.006 0.006 0.012 0.008 0.018h0.002c0.084 0.16 0.25 0.271 0.443 0.271 0.277 0 0.504-0.226 0.504-0.503 0-0.043-0.008-0.085-0.018-0.125 0.002-0.007 0.002-0.013-0.002-0.02-0.373-0.882-0.018-1.85 0.42-2.892 0.473-1.126 0.98-2.376 0.422-3.647-0.072-0.184-0.248-0.313-0.457-0.313-0.27 0-0.49 0.22-0.49 0.49 0 0.06 0.014 0.116 0.033 0.169 0 0.002 0 0.004 0 0.006 0.002 0.003 0.002 0.006 0.004 0.009 0.002 0.004 0.004 0.008 0.004 0.012 0.404 0.909 0.014 1.841-0.428 2.893-0.465 1.109-0.98 2.339-0.461 3.592C20.143 11.539 20.148 11.553 20.154 11.566z" data-fill-palette-color="accent"></path><path fill="#ac5633" d="M15.019 7.212c0.003 0.006 0.005 0.012 0.008 0.018 0 0 0.001 0 0.002 0 0.084 0.16 0.25 0.271 0.443 0.271 0.277 0 0.502-0.226 0.502-0.503 0-0.043-0.007-0.085-0.018-0.125 0.002-0.007 0.002-0.013 0-0.02-0.375-0.882-0.019-1.85 0.419-2.892 0.473-1.126 0.98-2.376 0.422-3.647C16.725 0.13 16.549 0 16.34 0c-0.27 0-0.49 0.22-0.49 0.49 0 0.06 0.012 0.116 0.032 0.169 0 0.002 0 0.004 0.001 0.006 0.001 0.003 0.002 0.006 0.003 0.009 0.001 0.004 0.003 0.008 0.004 0.012 0.404 0.909 0.013 1.841-0.428 2.893-0.466 1.109-0.982 2.339-0.462 3.592C15.007 7.185 15.012 7.198 15.019 7.212z" data-fill-palette-color="accent"></path></g></svg></g></svg></g></svg></g></svg></g><g><path d="M0 123.6c0-68.262 55.338-123.6 123.6-123.6 59.512 0 109.2 42.059 120.961 98.074l-1.454 0c-11.738-55.224-60.784-96.652-119.507-96.651-67.477 0-122.177 54.701-122.177 122.177 0 67.477 54.701 122.177 122.177 122.177 58.723 0 107.769-41.428 119.507-96.651h1.454c-11.761 56.015-61.45 98.074-120.961 98.074-68.262 0-123.6-55.338-123.6-123.6z" fill="#cb8c2f" stroke="transparent" data-fill-palette-color="tertiary"></path></g></svg></g><defs></defs></svg><rect width="395.52" height="247.2" fill="none" stroke="none" visibility="hidden"></rect></g></svg></g></svg>